HIERARCHY
ROOT Hips
{
	OFFSET 0.000000 0.000000 0.000000 
	CHANNELS 6 Xposition Yposition Zposition Zrotation Yrotation Xrotation
	JOINT LeftUpLeg
	{
		OFFSET 1.363060 -1.794630 0.839290 
		CHANNELS 3 Zrotation Yrotation Xrotation
		JOINT LeftLeg
		{
			OFFSET 2.448110 -6.726130 0.000000 
			CHANNELS 3 Zrotation Yrotation Xrotation
			JOINT LeftFoot
			{
				OFFSET 2.562200 -7.039590 0.000000 
				CHANNELS 3 Zrotation Yrotation Xrotation
				JOINT LeftToeBase
				{
					OFFSET 0.157640 -0.433110 2.322550 
					CHANNELS 3 Zrotation Yrotation Xrotation
					End Site
					{
						OFFSET 0.000000 0.000000 0.000000 
					}
				}
			}
		}
	}
	JOINT RightUpLeg
	{
		OFFSET -1.305520 -1.794630 0.839290 
		CHANNELS 3 Zrotation Yrotation Xrotation
		JOINT RightLeg
		{
			OFFSET -2.542530 -6.985550 0.000000 
			CHANNELS 3 Zrotation Yrotation Xrotation
			JOINT RightFoot
			{
				OFFSET -2.568260 -7.056230 0.000000 
				CHANNELS 3 Zrotation Yrotation Xrotation
				JOINT RightToeBase
				{
					OFFSET -0.164730 -0.452590 2.363150 
					CHANNELS 3 Zrotation Yrotation Xrotation
					End Site
					{
						OFFSET 0.000000 0.000000 0.000000 
					}
				}
			}
		}
	}
	JOINT Spine
	{
		OFFSET 0.028270 2.035590 -0.193380 
		CHANNELS 3 Zrotation Yrotation Xrotation
		JOINT Spine1
		{
			OFFSET 0.056720 2.048850 -0.042750 
			CHANNELS 3 Zrotation Yrotation Xrotation
			JOINT Neck1
			{
				OFFSET -0.054170 1.746240 0.172020 
				CHANNELS 3 Zrotation Yrotation Xrotation
				JOINT Head
				{
					OFFSET 0.104070 1.761360 -0.123970 
					CHANNELS 3 Zrotation Yrotation Xrotation
					End Site
					{
						OFFSET 0.000000 0.000000 0.000000 
					}
				}
			}
			JOINT LeftArm
			{
				OFFSET 3.362410 1.200890 -0.311210 
				CHANNELS 3 Zrotation Yrotation Xrotation
				JOINT LeftForeArm
				{
					OFFSET 4.983000 -0.000000 -0.000000 
					CHANNELS 3 Zrotation Yrotation Xrotation
					JOINT LeftHand
					{
						OFFSET 3.483560 -0.000000 -0.000000 
						CHANNELS 3 Zrotation Yrotation Xrotation
						JOINT LeftHandIndex1
						{
							OFFSET 0.715260 -0.000000 -0.000000 
							CHANNELS 3 Zrotation Yrotation Xrotation
							End Site
							{
								OFFSET 0.000000 0.000000 0.000000 
							}
						}
					}
				}
			}
			JOINT RightArm
			{
				OFFSET -3.136600 1.374050 -0.404650 
				CHANNELS 3 Zrotation Yrotation Xrotation
				JOINT RightForeArm
				{
					OFFSET -5.241900 -0.000000 -0.000000 
					CHANNELS 3 Zrotation Yrotation Xrotation
					JOINT RightHand
					{
						OFFSET -3.444170 -0.000000 -0.000000 
						CHANNELS 3 Zrotation Yrotation Xrotation
						JOINT RightHandIndex1
						{
							OFFSET -0.622530 -0.000000 -0.000000 
							CHANNELS 3 Zrotation Yrotation Xrotation
							End Site
							{
								OFFSET 0.000000 0.000000 0.000000 
							}
						}
					}
				}
			}
		}
	}
}
MOTION
Frames: 10
Frame Time: 0.041667
8.108768 17.253303 6.908163 -177.474350 -48.776288 -167.589164 -10.347618 -4.513399 -34.910882 2.353791 10.552977 30.667569 -0.738076 5.776732 -5.646475 0.253000 -3.236200 -8.937200 13.536226 3.665532 -16.469908 -4.056648 -11.355876 37.611360 1.297932 -14.276786 -17.806620 -0.030500 1.127100 -3.098600 1.905309 -5.271125 -4.625430 -3.894876 -2.873525 0.043270 -2.862263 12.651774 17.451864 -2.315800 5.982800 8.455800 -57.252449 -27.909046 21.332892 56.848303 -45.478262 -33.831505 0.089986 -3.109318 -77.251803 -7.125000 0.000000 0.000000 79.108311 2.031447 52.354555 -118.073611 47.326126 -81.977266 1.990292 -3.068747 20.833959 7.125000 0.000000 0.000000 
8.194802 17.232838 6.866113 -177.124834 -50.417249 -167.440251 -9.660939 -5.399664 -35.988824 2.465877 10.738064 31.185769 -0.593786 5.064200 -5.342833 0.293500 -3.483500 -9.627800 14.175958 3.359265 -16.316325 -4.007168 -11.233046 37.333482 1.294328 -14.308794 -17.992734 -0.224000 3.046300 -8.407700 1.973286 -5.518376 -4.712015 -3.970544 -3.008384 0.010950 -2.763723 12.467077 17.252538 -2.310000 5.914300 8.392000 -54.874787 -29.702623 19.183687 53.008498 -43.945813 -30.756774 0.211611 -3.383886 -77.982802 -7.125000 0.000000 0.000000 79.839438 3.600309 54.678335 -116.200137 47.812415 -79.499176 1.952376 -3.202558 21.962210 7.125000 0.000000 0.000000 
8.286538 17.212577 6.817446 -176.443984 -51.849010 -167.788165 -8.794196 -6.095681 -36.816872 2.564095 10.916769 31.663400 -0.522440 4.703373 -5.048927 0.405200 -4.086500 -11.320000 15.140648 3.006181 -15.888043 -3.943216 -11.050183 36.937237 1.192661 -13.933402 -18.492345 -0.425500 4.186400 -11.601700 2.067003 -5.607176 -4.778270 -3.924226 -3.058890 -0.154520 -2.482082 12.200371 17.060249 -2.218000 5.810400 8.284600 -52.554453 -31.324574 17.144237 49.588238 -42.353463 -28.106728 0.321242 -3.650434 -78.372210 -7.125000 0.000000 0.000000 80.601893 5.090650 56.795121 -114.421821 48.290611 -77.086928 1.909248 -3.345182 22.705458 7.125000 0.000000 0.000000 
8.394564 17.197814 6.742204 -175.529007 -52.323840 -168.463171 -7.811864 -5.847292 -37.370351 2.602356 11.058214 31.915099 -0.508679 4.642087 -4.724585 0.582100 -4.885300 -13.581700 16.349163 3.216948 -15.393394 -3.893531 -10.869627 36.570619 1.030261 -13.265266 -19.018720 -0.532500 4.676000 -12.986800 2.184672 -5.227540 -4.726510 -3.411153 -2.864382 -0.075487 -2.275094 11.819898 16.730685 -2.164000 5.641800 8.146100 -50.161341 -33.104078 14.969599 46.379843 -40.582072 -25.664789 0.375380 -3.936439 -78.540714 -7.125000 0.000000 0.000000 81.256254 6.957554 58.685427 -112.732799 48.762600 -74.837053 1.875370 -3.462872 22.945346 7.125000 0.000000 0.000000 
8.495463 17.175312 6.678977 -174.764189 -53.156254 -168.839866 -6.839313 -6.164950 -38.307433 2.714926 11.293213 32.507066 -0.460034 4.412552 -4.497730 0.643400 -5.131400 -14.283600 17.434140 2.746156 -15.404253 -3.827453 -10.736744 36.256175 0.961982 -13.212527 -19.758178 -0.686900 5.298600 -14.762100 2.243083 -4.983059 -4.654576 -3.227853 -2.749117 0.158696 -2.217382 11.473090 16.527883 -2.172700 5.483000 8.137400 -47.365996 -34.846831 12.653619 43.389721 -38.655780 -23.410628 0.394520 -4.251608 -78.832507 -7.125000 0.000000 0.000000 82.060969 9.241864 60.296731 -111.107500 49.232272 -72.715823 1.887005 -3.545391 22.588697 7.125000 0.000000 0.000000 
8.592391 17.145175 6.605059 -173.866154 -53.604730 -169.428194 -5.833899 -5.837946 -39.224151 2.828716 11.550195 33.113782 -0.339498 3.822306 -4.265583 0.556500 -4.778700 -13.278300 18.552911 2.093641 -15.525949 -3.773020 -10.641559 36.047577 0.940990 -13.463450 -20.582201 -0.986200 6.320800 -17.718100 2.246310 -4.588747 -4.600446 -3.171619 -2.564578 0.245935 -1.942816 11.141670 16.460985 -2.102800 5.354400 8.137500 -44.420535 -36.119961 10.250671 40.738039 -36.830551 -21.538226 0.443914 -4.556228 -78.982023 -7.125000 0.000000 0.000000 83.354830 11.424631 61.461590 -109.322670 49.808142 -70.417030 1.936751 -3.624761 21.940829 7.125000 0.000000 0.000000 
8.675879 17.110660 6.556697 -173.144573 -54.743370 -169.973406 -5.048232 -6.085313 -40.289093 3.002692 11.838924 33.933644 -0.167298 2.922792 -3.961957 0.436700 -4.240400 -11.754100 19.427261 0.399812 -15.867554 -3.739853 -10.573812 35.920573 0.887372 -13.525123 -21.299370 -1.226000 7.022600 -19.782300 2.250878 -4.462216 -4.644408 -3.294376 -2.521797 -0.026197 -1.656799 10.739949 16.376972 -2.040700 5.195700 8.090800 -41.718241 -37.036498 8.167024 38.370722 -35.132637 -19.914785 0.454675 -4.843065 -78.737798 -7.125000 0.000000 0.000000 84.710151 13.496788 62.150775 -107.283774 50.529406 -67.893172 1.983672 -3.697710 21.031074 7.125000 0.000000 0.000000 
8.753259 17.073497 6.502735 -172.564364 -55.849573 -170.514779 -4.436064 -6.217836 -41.193083 3.155255 12.086620 34.642882 -0.012063 2.084033 -3.706591 0.348600 -3.793500 -10.496500 20.220225 -1.162841 -16.031018 -3.705813 -10.497648 35.787893 0.856870 -13.703785 -21.985123 -1.338500 7.325400 -20.683100 2.325551 -4.330046 -4.696701 -3.029465 -2.475571 -0.337754 -1.633250 10.404698 16.262841 -2.064700 5.038600 8.064900 -39.348514 -37.826867 6.420520 36.208167 -33.541910 -18.509757 0.449888 -5.116684 -78.038578 -7.125000 0.000000 0.000000 85.620243 15.736653 62.476353 -104.826874 51.454390 -64.975469 1.933801 -3.819810 20.058688 7.125000 0.000000 0.000000 
8.825038 17.027884 6.445311 -171.857213 -56.643321 -171.038705 -3.797844 -6.035412 -42.194303 3.298679 12.347224 35.341559 0.116536 1.391754 -3.597952 0.269000 -3.336600 -9.217400 21.062052 -2.258436 -16.364906 -3.720297 -10.502226 35.893971 0.825458 -13.853138 -22.601314 -1.457200 7.629900 -21.595400 2.389511 -4.203338 -4.721481 -2.840388 -2.438033 -0.473840 -1.551177 10.198135 16.138876 -2.032900 4.941200 8.022400 -36.835052 -38.294150 4.317905 34.146162 -32.099274 -17.351359 0.509196 -5.365990 -76.983937 -7.125000 0.000000 0.000000 86.530882 18.204174 62.897565 -102.224268 52.478898 -61.973346 1.913449 -3.891900 19.336809 7.125000 0.000000 0.000000 
8.889691 16.976569 6.390942 -171.240643 -57.526700 -171.414391 -3.280650 -5.894445 -43.348472 3.474009 12.640234 36.169342 0.259580 0.589884 -3.483101 0.196200 -2.852400 -7.868000 21.781225 -3.251205 -16.824498 -3.776675 -10.569892 36.186610 0.754452 -13.804105 -23.183315 -1.548900 7.855400 -22.275900 2.372835 -4.115805 -4.702147 -2.912215 -2.433808 -0.422389 -1.450097 9.903173 15.936720 -2.025300 4.815300 7.949900 -34.167181 -38.544489 2.264088 32.303368 -30.837502 -16.330051 0.494717 -5.595829 -75.951067 -7.125000 0.000000 0.000000 87.606169 21.005028 62.977958 -99.267872 53.682259 -58.734944 1.869835 -3.967747 18.752213 7.125000 0.000000 0.000000 
